<svg xmlns="http://www.w3.org/2000/svg" xmlns:xlink="http://www.w3.org/1999/xlink" width="720" height="726.5" viewBox="0 0 1440 1453"><defs><path id="a" d="M0 816.5C0 415.27 322.8 90 721 90s721 325.27 721 726.5S1119.2 1543 721 1543 0 1217.73 0 816.5z"/><path id="b" d="M234 820.5C234 549.05 451.81 329 720.5 329S1207 549.05 1207 820.5 989.19 1312 720.5 1312 234 1091.95 234 820.5z"/><path id="c" d="M450 825c0-151.88 121.55-275 271.5-275S993 673.12 993 825s-121.55 275-271.5 275S450 976.88 450 825z"/><path id="f" d="M-34 1577V56h1510v1521zm755-34c398.2 0 721-325.27 721-726.5S1119.2 90 721 90 0 415.27 0 816.5 322.8 1543 721 1543z"/><path id="i" d="M200 1346V295h1041v1051zm520.5-34c268.69 0 486.5-220.05 486.5-491.5S989.19 329 720.5 329 234 549.05 234 820.5 451.81 1312 720.5 1312z"/><path id="l" d="M416 1134V516h611v618zm305.5-34C871.45 1100 993 976.88 993 825S871.45 550 721.5 550 450 673.12 450 825s121.55 275 271.5 275z"/><filter id="d" width="200%" height="200%" x="-50%" y="-50%"><feGaussianBlur in="SourceGraphic" result="FeGaussianBlur1108Out" stdDeviation="17 17"/></filter><mask id="e"><use fill="#fff" xlink:href="#a"/></mask><filter id="g" width="200%" height="200%" x="-50%" y="-50%"><feGaussianBlur in="SourceGraphic" result="FeGaussianBlur1116Out" stdDeviation="17 17"/></filter><mask id="h"><use fill="#fff" xlink:href="#b"/></mask><filter id="j" width="200%" height="200%" x="-50%" y="-50%"><feGaussianBlur in="SourceGraphic" result="FeGaussianBlur1124Out" stdDeviation="17 17"/></filter><mask id="k"><use fill="#fff" xlink:href="#c"/></mask></defs><g transform="translate(0 -90)"><use fill="#dae3fc" fill-opacity=".3" stroke="#dae3fc" stroke-opacity=".3" stroke-width="0" filter="url(#d)" mask="url(&quot;#e&quot;)" xlink:href="#f"/><use fill="#dae3fc" fill-opacity=".3" stroke="#dae3fc" stroke-opacity=".3" stroke-width="0" filter="url(#g)" mask="url(&quot;#h&quot;)" xlink:href="#i"/><use fill="#dae3fc" fill-opacity=".3" stroke="#dae3fc" stroke-opacity=".3" stroke-width="0" filter="url(#j)" mask="url(&quot;#k&quot;)" xlink:href="#l"/></g></svg>