<svg width="105" height="105" viewBox="0 0 105 105" xmlns="http://www.w3.org/2000/svg"><title>chat</title><defs><linearGradient x1="0%" y1="0%" y2="100%" id="a"><stop stop-color="#9BDFD7" offset="0%"/><stop stop-color="#6EB3D2" offset="100%"/></linearGradient><linearGradient x1="-11.868%" y1="-247.754%" x2="127.206%" y2="361.002%" id="b"><stop stop-color="#9BDFD7" offset="0%"/><stop stop-color="#6EB3D2" offset="100%"/></linearGradient></defs><g fill="none" fill-rule="evenodd"><path d="M49.5 99c10.24 0 19.754-3.11 27.65-8.436.058-.04.145-.098.26-.178L99 94.42l-6.2-20.912.287-.526C96.86 65.995 99 57.997 99 49.5 99 22.162 76.838 0 49.5 0S0 22.162 0 49.5 22.162 99 49.5 99z" stroke="url(#a)" stroke-width="5.405" stroke-linejoin="round" transform="translate(3 3)"/><path d="M23.35 56.972c-4.127 0-7.473-3.345-7.473-7.472 0-4.127 3.346-7.472 7.472-7.472s7.47 3.345 7.47 7.472c0 4.127-3.344 7.472-7.47 7.472zm26.15 0c-4.127 0-7.472-3.345-7.472-7.472 0-4.127 3.345-7.472 7.472-7.472 4.127 0 7.472 3.345 7.472 7.472 0 4.127-3.345 7.472-7.472 7.472zm26.15 0c-4.126 0-7.47-3.345-7.47-7.472 0-4.127 3.344-7.472 7.47-7.472 4.127 0 7.473 3.345 7.473 7.472 0 4.127-3.346 7.472-7.472 7.472z" fill="url(#b)" transform="translate(3 3)"/></g></svg>