<svg width="92" height="100" viewBox="0 0 92 100" xmlns="http://www.w3.org/2000/svg"><title>gift</title><defs><linearGradient x1="100%" y1="100%" x2="0%" y2="0%" id="a"><stop stop-color="#B27AD7" offset="0%"/><stop stop-color="#FD73AF" offset="100%"/></linearGradient></defs><path d="M152.72 30.818h35.71c3.628 0 6.57 2.93 6.57 6.544V50.45c0 3.615-2.942 6.545-6.57 6.545h-.94v36.46c0 3.615-2.942 6.545-6.572 6.545h-63.836c-3.63 0-6.572-2.93-6.572-6.544v-36.46h-.94c-3.628 0-6.57-2.93-6.57-6.546V37.362c0-3.614 2.942-6.544 6.57-6.544h12.575c-3.137-3.273-5.063-7.706-5.063-12.588 0-10.068 8.196-18.23 18.306-18.23 8.553 0 15.737 5.842 17.746 13.74 2.448-1.615 5.384-2.555 8.54-2.555 8.554 0 15.49 6.906 15.49 15.426 0 1.46-.204 2.87-.584 4.208h-7.05c.677-1.253 1.062-2.685 1.062-4.207 0-4.905-3.993-8.88-8.92-8.88-4.924 0-8.917 3.975-8.917 8.88 0 1.523.385 2.955 1.062 4.208h-1.096zm-5.632 20.567V36.427h-10.573c-.373.023-.75.034-1.127.034-.38 0-.755-.01-1.127-.033h-24.69c-.517 0-.937.42-.937.935V50.45c0 .517.42.935.938.935h37.518zm5.633 0h35.71c.517 0 .937-.418.937-.935V37.362c0-.516-.42-.935-.938-.935h-35.71v14.958zM147.09 94.39V56.996h-30.945v36.46c0 .517.42.936.94.936h30.005zm5.633 0h28.198c.52 0 .94-.418.94-.934v-36.46H152.72V94.39zm-5.632-76.157c-.46-6.034-5.523-10.788-11.7-10.788-6.48 0-11.735 5.232-11.735 11.686 0 6.456 5.254 11.688 11.735 11.688 6.177 0 11.24-4.754 11.7-10.79v-1.795z" transform="translate(-103)" fill="url(#a)" fill-rule="evenodd"/></svg>