<svg width="23" height="24" viewBox="0 0 23 24" xmlns="http://www.w3.org/2000/svg"><title>homeIcom</title><defs><linearGradient x1="13.515%" y1="0%" y2="100%" id="a"><stop stop-color="#6C92E4" offset="0%"/><stop stop-color="#866FDE" offset="100%"/></linearGradient></defs><path d="M49.696 61.946H47.27c-.993 0-1.8-.806-1.8-1.8 0-.188.03-.375.09-.554l6.58-20.346c.24-.743.932-1.246 1.713-1.246h5.232c.79 0 1.487.515 1.72 1.27l6.3 20.4c.292.95-.24 1.957-1.19 2.25-.172.053-.35.08-.53.08h-2.78c-.794 0-1.494-.52-1.723-1.28l-.772-2.553c-.23-.76-.93-1.28-1.723-1.28h-4.52c-.8 0-1.505.53-1.73 1.3l-.713 2.46c-.223.77-.928 1.3-1.728 1.3zm6.83-11.052l2.973 1.54-.57-3.263 2.407-2.31-3.325-.477-1.487-2.97-1.486 2.97-3.326.476 2.406 2.31-.568 3.265 2.973-1.54z" transform="translate(-45 -38)" fill="url(#a)" fill-rule="evenodd"/></svg>