<svg width="60" height="60" viewBox="0 0 60 60" xmlns="http://www.w3.org/2000/svg" xmlns:xlink="http://www.w3.org/1999/xlink"><title>appIcon</title><defs><rect id="a" width="60" height="60" rx="14"/><linearGradient x1="0%" y1="0%" y2="100%" id="b"><stop stop-color="#6C92E4" offset="0%"/><stop stop-color="#866FDE" offset="100%"/></linearGradient><circle id="e" cx="30" cy="30" r="30"/><filter x="-6.7%" y="-6.7%" width="113.3%" height="113.3%" filterUnits="objectBoundingBox" id="d"><feGaussianBlur stdDeviation="4" in="SourceAlpha" result="shadowBlurInner1"/><feOffset in="shadowBlurInner1" result="shadowOffsetInner1"/><feComposite in="shadowOffsetInner1" in2="SourceAlpha" operator="arithmetic" k2="-1" k3="1" result="shadowInnerInner1"/><feColorMatrix values="0 0 0 0 0.347975287 0 0 0 0 0.289700455 0 0 0 0 0.581074617 0 0 0 0.203096694 0" in="shadowInnerInner1"/></filter><circle id="g" cx="30" cy="30" r="20.26"/><filter x="-9.9%" y="-9.9%" width="119.7%" height="119.7%" filterUnits="objectBoundingBox" id="f"><feGaussianBlur stdDeviation="4" in="SourceAlpha" result="shadowBlurInner1"/><feOffset in="shadowBlurInner1" result="shadowOffsetInner1"/><feComposite in="shadowOffsetInner1" in2="SourceAlpha" operator="arithmetic" k2="-1" k3="1" result="shadowInnerInner1"/><feColorMatrix values="0 0 0 0 0.347975287 0 0 0 0 0.289700455 0 0 0 0 0.581074617 0 0 0 0.203096694 0" in="shadowInnerInner1"/></filter><circle id="i" cx="30" cy="30" r="11.288"/><filter x="-17.7%" y="-17.7%" width="135.4%" height="135.4%" filterUnits="objectBoundingBox" id="h"><feGaussianBlur stdDeviation="4" in="SourceAlpha" result="shadowBlurInner1"/><feOffset in="shadowBlurInner1" result="shadowOffsetInner1"/><feComposite in="shadowOffsetInner1" in2="SourceAlpha" operator="arithmetic" k2="-1" k3="1" result="shadowInnerInner1"/><feColorMatrix values="0 0 0 0 0.347975287 0 0 0 0 0.289700455 0 0 0 0 0.581074617 0 0 0 0.203096694 0" in="shadowInnerInner1"/></filter><path d="M22.238 46.34h-6.976c-.41 0-.74-.33-.74-.74 0-.077.012-.154.035-.227l10.117-31.275c.1-.305.384-.512.705-.512h9.678c.325 0 .612.21.708.522l9.68 31.348c.12.39-.1.805-.49.925-.07.023-.144.034-.218.034h-7.414c-.326 0-.614-.213-.708-.526l-1.796-5.94c-.094-.312-.382-.526-.708-.526h-8.755c-.33 0-.62.218-.71.534l-1.698 5.85c-.093.317-.383.535-.712.535zm8.05-15.118l4.066 2.108-.776-4.465 3.29-3.162-4.547-.65-2.033-4.063-2.034 4.062-4.548.65 3.29 3.163-.776 4.465 4.067-2.108z" id="k"/><filter x="-4.8%" y="-4.6%" width="109.7%" height="109.1%" filterUnits="objectBoundingBox" id="j"><feOffset in="SourceAlpha" result="shadowOffsetOuter1"/><feGaussianBlur stdDeviation=".5" in="shadowOffsetOuter1" result="shadowBlurOuter1"/><feColorMatrix values="0 0 0 0 0 0 0 0 0 0 0 0 0 0 0 0 0 0 0.295940897 0" in="shadowBlurOuter1"/></filter></defs><g fill="none" fill-rule="evenodd"><g><mask id="c" fill="#fff"><use xlink:href="#a"/></mask><use fill="#D8D8D8" xlink:href="#a"/><path fill="url(#b)" mask="url(#c)" d="M0 0h60v60H0z"/><use filter="url(#d)" xlink:href="#e" mask="url(#c)" fill="#000"/><use filter="url(#f)" xlink:href="#g" mask="url(#c)" fill="#000"/><use filter="url(#h)" xlink:href="#i" mask="url(#c)" fill="#000"/></g><g><use fill="#000" filter="url(#j)" xlink:href="#k"/><use fill="#FFF" xlink:href="#k"/></g></g></svg>